<svg width="13" height="4" viewBox="0 0 13 4" fill="none" xmlns="http://www.w3.org/2000/svg">
<path d="M0.409058 1.43454C0.409058 0.882255 0.856773 0.43454 1.40906 0.43454H6.96158C7.51386 0.43454 7.96158 0.882255 7.96158 1.43454V2.09474C7.96158 2.64702 7.51386 3.09474 6.96158 3.09474H1.40906C0.856773 3.09474 0.409058 2.64702 0.409058 2.09474V1.43454Z" fill="#FFB800"/>
<path d="M0.409058 1.43454C0.409058 0.882255 0.856773 0.43454 1.40906 0.43454H6.96158C7.51386 0.43454 7.96158 0.882255 7.96158 1.43454V2.09474C7.96158 2.64702 7.51386 3.09474 6.96158 3.09474H1.40906C0.856773 3.09474 0.409058 2.64702 0.409058 2.09474V1.43454Z" fill="url(#paint0_linear_0_28)"/>
<path d="M4.95978 1.43454C4.95978 0.882255 5.40749 0.43454 5.95978 0.43454H11.5123C12.0646 0.43454 12.5123 0.882255 12.5123 1.43454V2.09474C12.5123 2.64702 12.0646 3.09474 11.5123 3.09474H5.95977C5.40749 3.09474 4.95978 2.64702 4.95978 2.09474V1.43454Z" fill="#FFB800"/>
<path d="M4.95978 1.43454C4.95978 0.882255 5.40749 0.43454 5.95978 0.43454H11.5123C12.0646 0.43454 12.5123 0.882255 12.5123 1.43454V2.09474C12.5123 2.64702 12.0646 3.09474 11.5123 3.09474H5.95977C5.40749 3.09474 4.95978 2.64702 4.95978 2.09474V1.43454Z" fill="url(#paint1_linear_0_28)"/>
<defs>
<linearGradient id="paint0_linear_0_28" x1="6.46068" y1="0.43454" x2="6.46068" y2="3.09474" gradientUnits="userSpaceOnUse">
<stop stop-color="#EE3A79"/>
<stop offset="1" stop-color="#A30293"/>
</linearGradient>
<linearGradient id="paint1_linear_0_28" x1="6.46068" y1="0.43454" x2="6.46068" y2="3.09474" gradientUnits="userSpaceOnUse">
<stop stop-color="#EE3A79"/>
<stop offset="1" stop-color="#A30293"/>
</linearGradient>
</defs>
</svg>
