<svg width="15" height="16" viewBox="0 0 15 16" fill="none" xmlns="http://www.w3.org/2000/svg">
<path d="M0.458374 7.42084C0.458374 6.86856 0.906089 6.42084 1.45837 6.42084H5.17465C5.72693 6.42084 6.17465 5.97313 6.17465 5.42084V1.0937C6.17465 0.54142 6.62236 0.0937042 7.17465 0.0937042H7.59423C8.14652 0.0937042 8.59423 0.54142 8.59423 1.0937V5.42084C8.59423 5.97313 9.04195 6.42084 9.59423 6.42084H13.3105C13.8628 6.42084 14.3105 6.86856 14.3105 7.42084V7.84727C14.3105 8.39955 13.8628 8.84727 13.3105 8.84727H9.59423C9.04195 8.84727 8.59423 9.29498 8.59423 9.84727V14.2051C8.59423 14.7574 8.14652 15.2051 7.59423 15.2051H7.17465C6.62236 15.2051 6.17465 14.7574 6.17465 14.2051V9.84727C6.17465 9.29498 5.72693 8.84727 5.17465 8.84727H1.45837C0.906088 8.84727 0.458374 8.39955 0.458374 7.84727V7.42084Z" fill="#FFB800"/>
<path d="M0.458374 7.42084C0.458374 6.86856 0.906089 6.42084 1.45837 6.42084H5.17465C5.72693 6.42084 6.17465 5.97313 6.17465 5.42084V1.0937C6.17465 0.54142 6.62236 0.0937042 7.17465 0.0937042H7.59423C8.14652 0.0937042 8.59423 0.54142 8.59423 1.0937V5.42084C8.59423 5.97313 9.04195 6.42084 9.59423 6.42084H13.3105C13.8628 6.42084 14.3105 6.86856 14.3105 7.42084V7.84727C14.3105 8.39955 13.8628 8.84727 13.3105 8.84727H9.59423C9.04195 8.84727 8.59423 9.29498 8.59423 9.84727V14.2051C8.59423 14.7574 8.14652 15.2051 7.59423 15.2051H7.17465C6.62236 15.2051 6.17465 14.7574 6.17465 14.2051V9.84727C6.17465 9.29498 5.72693 8.84727 5.17465 8.84727H1.45837C0.906088 8.84727 0.458374 8.39955 0.458374 7.84727V7.42084Z" fill="url(#paint0_linear_0_27)"/>
<defs>
<linearGradient id="paint0_linear_0_27" x1="7.38444" y1="0.0937042" x2="7.38444" y2="15.2051" gradientUnits="userSpaceOnUse">
<stop stop-color="#EE3A79"/>
<stop offset="1" stop-color="#A30293"/>
</linearGradient>
</defs>
</svg>
